<?xml version="1.0" encoding="UTF-8" standalone="no"?>
<svg
   xmlns:dc="http://purl.org/dc/elements/1.1/"
   xmlns:cc="http://creativecommons.org/ns#"
   xmlns:rdf="http://www.w3.org/1999/02/22-rdf-syntax-ns#"
   xmlns:svg="http://www.w3.org/2000/svg"
   xmlns="http://www.w3.org/2000/svg"
   xmlns:sodipodi="http://sodipodi.sourceforge.net/DTD/sodipodi-0.dtd"
   xmlns:inkscape="http://www.inkscape.org/namespaces/inkscape"
   inkscape:version="1.0 (4035a4f, 2020-05-01)"
   id="svg396"
   version="1.1"
   sodipodi:docname="basic_rune_frame.svg"
   viewBox="-60 -60 120 120"
   height="120mm"
   width="120mm">
  <defs
     id="defs398">
    <marker
       inkscape:isstock="true"
       style="overflow:visible"
       id="Arrow1Lstart"
       refX="0.0"
       refY="0.0"
       orient="auto"
       inkscape:stockid="Arrow1Lstart">
      <path
         transform="scale(0.8) translate(12.5,0)"
         style="fill-rule:evenodd;stroke:#000000;stroke-width:1pt;stroke-opacity:1;fill:#000000;fill-opacity:1"
         d="M 0.0,0.0 L 5.0,-5.0 L -12.5,0.0 L 5.0,5.0 L 0.0,0.0 z "
         id="path1336" />
    </marker>
  </defs>
  <sodipodi:namedview
     inkscape:object-paths="true"
     inkscape:document-rotation="0"
     id="namedview386"
     inkscape:snap-grids="true"
     inkscape:snap-bbox-edge-midpoints="true"
     inkscape:bbox-nodes="true"
     inkscape:bbox-paths="true"
     inkscape:window-maximized="0"
     inkscape:window-y="26"
     inkscape:window-x="-15"
     inkscape:window-height="855"
     inkscape:window-width="1399"
     inkscape:snap-bbox-midpoints="true"
     inkscape:snap-bbox="true"
     inkscape:snap-global="true"
     inkscape:guide-bbox="true"
     showguides="true"
     units="mm"
     showgrid="false"
     inkscape:current-layer="Template"
     inkscape:document-units="mm"
     inkscape:cy="227.77337"
     inkscape:cx="386.34767"
     inkscape:zoom="5.6568543"
     inkscape:pageshadow="2"
     inkscape:pageopacity="0.0"
     borderopacity="1.0"
     bordercolor="#666666"
     pagecolor="#ffffff">
    <sodipodi:guide
       id="guide2827"
       position="226.771653543,226.771653543"
       orientation="1,0" />
    <sodipodi:guide
       id="guide2829"
       position="226.771653543,226.771653543"
       orientation="0,1" />
    <inkscape:grid
       spacingy="0.1mm"
       spacingx="0.1mm"
       dotted="false"
       units="mm"
       snapvisiblegridlinesonly="true"
       enabled="true"
       visible="true"
       empspacing="10"
       id="grid3072"
       type="xygrid" />
  </sodipodi:namedview>
  <metadata
     id="metadata2822">
    <rdf:RDF>
      <cc:Work
         rdf:about="">
        <dc:format>image/svg+xml</dc:format>
        <dc:type
           rdf:resource="http://purl.org/dc/dcmitype/StillImage" />
        <dc:title></dc:title>
      </cc:Work>
    </rdf:RDF>
  </metadata>
  <g
     style="fill:none;stroke:black;stroke-width:0.05"
     id="Template"
     inkscape:groupmode="layer"
     inkscape:label="Layer 1">
    <circle
       r="60"
       id="circle389"
       cy="0"
       cx="0" />
    <path
       id="path402"
       d="M 1.1779947,-59.625823 -11.544034,-49.42949 6.9777433,-54.013163 -8.3635284,-34.74303 2.9553359,-26.043407"
       style="fill:none;stroke:#000000;stroke-width:0.264583px;stroke-linecap:butt;stroke-linejoin:miter;stroke-opacity:1" />
    <path
       style="fill:none;stroke:#000000;stroke-width:0.264585px;stroke-linecap:butt;stroke-linejoin:miter;stroke-opacity:1"
       d="M -59.896771,1.1454489 -49.700297,13.867476 -54.284034,-4.6542987 -35.013633,10.68697 -26.313891,-0.6318928"
       id="path402-8" />
    <path
       id="path402-8-1"
       d="M 59.896771,1.1454506 49.700297,13.867479 54.284034,-4.6542974 35.013633,10.686973 26.31389,-0.63189138"
       style="fill:none;stroke:#000000;stroke-width:0.565;stroke-linecap:square;stroke-linejoin:miter;stroke-opacity:1;fill-opacity:1;stroke-miterlimit:4;stroke-dasharray:none;paint-order:markers fill stroke" />
    <path
       style="fill:none;stroke:#000000;stroke-width:0.264583px;stroke-linecap:butt;stroke-linejoin:miter;stroke-opacity:1"
       d="M 1.4117766,59.896305 -11.310252,49.699972 7.2115256,54.283645 -8.1297464,35.013511 3.1891186,26.313889"
       id="path402-0" />
    <path
       transform="matrix(0.26458333,0,0,0.26458333,-60,-60)"
       id="path509"
       d="M 178.61972,446.70048 C 93.348191,428.14727 23.854694,357.14883 6.3347976,270.68457 -0.68961189,236.01769 0.97935583,234.70271 20.446733,259.56578 c 16.573793,21.16748 23.119042,26.58559 20.146535,16.67716 -5.699951,-18.99998 -13.507131,-54.92132 -12.217043,-56.21141 0.861154,-0.86115 15.892247,9.93736 33.402431,23.9967 17.510184,14.05934 32.657209,25.05533 33.660056,24.43554 4.336055,-2.67983 34.542968,-44.17897 33.162428,-45.55951 -0.83891,-0.83891 -8.89504,8.00142 -17.90251,19.64516 L 94.321393,263.71988 72.958934,247.03476 C 61.209579,237.85795 44.891863,225.05335 36.697338,218.5801 28.502814,212.10685 21.249447,207.35932 20.578744,208.03002 c -0.670703,0.6707 1.959425,13.73835 5.844729,29.03921 3.885303,15.30086 6.636579,28.24735 6.113945,28.76998 -0.522631,0.52264 -7.719821,-7.58236 -15.993753,-18.01109 L 1.5001538,228.86679 3.0367653,207.65358 C 5.1557612,178.40046 11.281674,156.8901 25.993657,127.04341 52.454865,73.36067 98.105653,33.200903 154.45232,14.036166 174.8519,7.0978197 216.55193,-0.40498598 222.91909,1.7174001 c 1.87287,0.6242919 -7.01811,9.3497569 -19.75773,19.3899229 -13.02028,10.261339 -21.39246,18.626191 -19.11964,19.102892 2.22384,0.466424 16.56746,-2.332169 31.87472,-6.219101 15.30727,-3.886929 28.21437,-6.684167 28.68246,-6.216082 0.46808,0.468082 -10.62797,15.198364 -24.6579,32.733958 -14.02993,17.535592 -25.50896,32.943118 -25.50896,34.238945 0,1.295827 8.59135,9.171855 19.09189,17.502285 22.77881,18.0712 26.16295,20.22382 26.16295,16.64206 0,-1.50019 -8.90955,-9.33254 -19.79899,-17.40522 -10.88945,-8.07268 -19.7807,-15.511712 -19.75834,-16.531185 0.0224,-1.019475 12.62201,-17.763492 27.99921,-37.208929 15.37721,-19.445436 26.9538,-35.733017 25.72576,-36.194624 -1.22804,-0.461607 -14.7414,2.336988 -30.02969,6.219101 -15.28829,3.88211 -28.09786,6.757412 -28.46572,6.389558 -0.36785,-0.367851 8.50082,-7.968147 19.70815,-16.889543 20.01342,-15.9313181 20.62929,-16.1908888 34.51911,-14.5486585 36.27203,4.2885393 69.49785,16.1490595 98.76834,35.2570475 51.04103,33.319932 87.07513,86.009973 99.03104,144.805783 7.64031,37.57297 6.67938,43.22771 -11.13894,65.54963 -8.54734,10.70765 -15.5406,18.77463 -15.5406,17.92661 0,-0.84801 3.03445,-14.38179 6.74326,-30.07506 3.70877,-15.69326 5.90219,-28.53321 4.87425,-28.53321 -1.69177,0 -31.72525,23.05691 -61.28228,47.04678 l -11.48099,9.31852 -16.38852,-21.29061 c -9.01372,-11.70985 -17.05287,-20.62629 -17.86483,-19.81434 -1.51649,1.51648 24.79227,38.37624 31.08096,43.54586 2.5597,2.10421 12.17121,-3.97836 35.58393,-22.51904 17.64235,-13.97107 32.76513,-24.71379 33.60622,-23.87271 1.26167,1.26168 -6.62161,37.40155 -12.25357,56.1749 -2.95992,9.86649 3.5449,4.52605 19.86509,-16.30919 9.15864,-11.69242 17.23969,-20.67135 17.95785,-19.95319 0.71814,0.71816 -0.15952,9.96649 -1.95034,20.55183 -15.59976,92.2074 -81.41882,163.34528 -171.00523,184.82419 -36.16704,8.67125 -42.54175,7.77311 -63.47778,-8.94366 -9.84587,-7.86161 -17.44175,-14.7537 -16.87972,-15.31573 0.56202,-0.56201 13.54074,2.15704 28.8416,6.04234 15.30086,3.88529 28.3401,6.54385 28.97607,5.90787 0.63598,-0.636 -11.60559,-17.2545 -27.20348,-36.93003 -15.59789,-19.67553 -28.3598,-36.15047 -28.3598,-36.61094 0,-0.46047 8.90954,-7.61062 19.79899,-15.8892 10.88944,-8.27858 19.79899,-16.24394 19.79899,-17.7008 0,-2.86166 -17.22228,8.97941 -35.25178,24.2371 l -11.21015,9.48672 27.77473,34.6015 c 15.99473,19.92607 25.5477,33.93926 22.52386,33.0401 -20.23313,-6.01651 -53.35724,-13.29106 -57.17341,-12.55615 -3.06265,0.58981 2.23775,6.40687 15.88493,17.43327 11.26469,9.10145 20.48125,17.04113 20.48125,17.64373 0,2.39197 -27.84975,0.43274 -44.09659,-3.10222 z"
       style="fill:#999999;stroke-width:0.141421;stroke:none" />
  </g>
</svg>
